<svg width="800" height="500" xmlns="http://www.w3.org/2000/svg">
    <!-- Background - Changed to white -->
    <rect width="800" height="500" fill="#ffffff" rx="8" ry="8"/>
    
    <!-- Title -->
    <text x="400" y="40" font-family="Arial" font-size="20" font-weight="bold" text-anchor="middle" fill="#1a365d">PADO Architecture</text>
    
    <!-- Light Module (Central) -->
    <circle cx="400" cy="200" r="60" fill="#3182ce" stroke="#2c5282" stroke-width="2"/>
    <text x="400" y="208" font-family="Arial" font-size="18" font-weight="bold" text-anchor="middle" fill="white">Light</text>
    
    <!-- Optical Element Module (Left) -->
    <circle cx="200" cy="200" r="60" fill="#4299e1" stroke="#2c5282" stroke-width="2"/>
    <text x="200" y="192" font-family="Arial" font-size="18" font-weight="bold" text-anchor="middle" fill="white">Optical</text>
    <text x="200" y="212" font-family="Arial" font-size="18" font-weight="bold" text-anchor="middle" fill="white">Elements</text>
    
    <!-- Propagator Module (Right) -->
    <circle cx="600" cy="200" r="60" fill="#4299e1" stroke="#2c5282" stroke-width="2"/>
    <text x="600" y="208" font-family="Arial" font-size="18" font-weight="bold" text-anchor="middle" fill="white">Propagator</text>
    
    <!-- Material Module (Left Bottom) -->
    <circle cx="200" cy="350" r="60" fill="#4299e1" stroke="#2c5282" stroke-width="2"/>
    <text x="200" y="358" font-family="Arial" font-size="18" font-weight="bold" text-anchor="middle" fill="white">Material</text>
    
    <!-- Math Module (Bottom) -->
    <circle cx="400" cy="350" r="60" fill="#4299e1" stroke="#2c5282" stroke-width="2"/>
    <text x="400" y="358" font-family="Arial" font-size="18" font-weight="bold" text-anchor="middle" fill="white">Math</text>
    
    <!-- Dependency Arrows -->
    <!-- Light <-> Optical Elements (bidirectional) -->
    <path d="M 340 200 C 310 180 290 180 260 200" stroke="#2c5282" stroke-width="2" fill="none" marker-end="url(#arrowhead)"/>
    <path d="M 260 210 C 290 230 310 230 340 210" stroke="#2c5282" stroke-width="2" fill="none" marker-end="url(#arrowhead)"/>
    
    <!-- Light <-> Propagator (bidirectional) -->
    <path d="M 460 200 C 490 180 510 180 540 200" stroke="#2c5282" stroke-width="2" fill="none" marker-end="url(#arrowhead)"/>
    <path d="M 540 210 C 510 230 490 230 460 210" stroke="#2c5282" stroke-width="2" fill="none" marker-end="url(#arrowhead)"/>
    
    <!-- Material -> Optical Elements -->
    <path d="M 200 290 L 200 260" stroke="#2c5282" stroke-width="2" fill="none" marker-end="url(#arrowhead)"/>
    
    <!-- Math -> Light -->
    <path d="M 400 290 L 400 260" stroke="#2c5282" stroke-width="2" stroke-dasharray="5,5" fill="none" marker-end="url(#arrowhead)"/>
    
    <!-- Math -> Optical Elements -->
    <path d="M 359 301 L 243 244" stroke="#2c5282" stroke-width="2" stroke-dasharray="5,5" fill="none" marker-end="url(#arrowhead)"/>
    
    <!-- Math -> Propagator -->
    <path d="M 441 301 L 557 244" stroke="#2c5282" stroke-width="2" stroke-dasharray="5,5" fill="none" marker-end="url(#arrowhead)"/>
    
    <!-- Descriptive Labels -->
    <text x="300" y="160" font-family="Arial" font-size="12" fill="#2c5282" text-anchor="middle">Forward</text>
    <text x="300" y="250" font-family="Arial" font-size="12" fill="#2c5282" text-anchor="middle">Transform</text>
    
    <text x="500" y="160" font-family="Arial" font-size="12" fill="#2c5282" text-anchor="middle">Forward</text>
    <text x="500" y="250" font-family="Arial" font-size="12" fill="#2c5282" text-anchor="middle">Propagate</text>
    
    <!-- Arrowhead marker definition -->
    <defs>
        <marker id="arrowhead" markerWidth="10" markerHeight="7" refX="9" refY="3.5" orient="auto">
            <polygon points="0 0, 10 3.5, 0 7" fill="#2c5282"/>
        </marker>
    </defs>
</svg>