<?xml version="1.0" encoding="UTF-8" standalone="no"?>
<svg
   inkscape:export-ydpi="399.72501"
   inkscape:export-xdpi="399.72501"
   inkscape:export-filename="C:\Users\shwba\OneDrive\Documents\GitHub\DiffLightWave\docs\images\logo_v2.png"
   sodipodi:docname="logo.svg"
   inkscape:version="1.1.1 (3bf5ae0d25, 2021-09-20)"
   id="svg8"
   version="1.1"
   viewBox="0 0 6.211056 6.2110563"
   height="6.2110562mm"
   width="6.2110562mm"
   xmlns:inkscape="http://www.inkscape.org/namespaces/inkscape"
   xmlns:sodipodi="http://sodipodi.sourceforge.net/DTD/sodipodi-0.dtd"
   xmlns="http://www.w3.org/2000/svg"
   xmlns:svg="http://www.w3.org/2000/svg"
   xmlns:rdf="http://www.w3.org/1999/02/22-rdf-syntax-ns#"
   xmlns:cc="http://creativecommons.org/ns#"
   xmlns:dc="http://purl.org/dc/elements/1.1/">
  <defs
     id="defs2">
    <g
       id="id-6a4a43ff-9de2-446c-ab14-82e687c3534b-5">
      <symbol
         overflow="visible"
         id="id-eae897c0-d3cd-41db-9ff8-bf08f2afdb04-0">
        <path
           style="stroke:none;stroke-width:0"
           d=""
           id="id-82dac7a9-b129-4c84-aefd-9ed920686428-5" />
      </symbol>
      <symbol
         overflow="visible"
         id="id-f8f66a9b-db17-4083-aa66-df46b8d858ab-9">
        <path
           style="stroke:none;stroke-width:0"
           d="M 2.625,-4.359375 C 1.390625,-4.0625 0.421875,-2.765625 0.421875,-1.5625 0.421875,-0.59375 1.0625,0.125 2,0.125 c 1.15625,0 1.984375,-1.578125 1.984375,-2.953125 0,-0.90625 -0.390625,-1.40625 -0.734375,-1.84375 C 2.890625,-5.125 2.296875,-5.875 2.296875,-6.3125 c 0,-0.21875 0.203125,-0.453125 0.546875,-0.453125 0.3125,0 0.5,0.125 0.71875,0.265625 0.203125,0.125 0.390625,0.25 0.546875,0.25 C 4.359375,-6.25 4.5,-6.484375 4.5,-6.65625 4.5,-6.875 4.34375,-6.890625 3.984375,-6.984375 3.46875,-7.09375 3.328125,-7.09375 3.171875,-7.09375 c -0.78125,0 -1.140625,0.4375 -1.140625,1.03125 0,0.546875 0.296875,1.09375 0.59375,1.703125 z m 0.125,0.21875 c 0.25,0.46875 0.546875,1 0.546875,1.71875 0,0.65625 -0.375,2.328125 -1.296875,2.328125 -0.546875,0 -0.96875,-0.421875 -0.96875,-1.1875 0,-0.625 0.375,-2.5 1.71875,-2.859375 z m 0,0"
           id="id-f8c8678e-fc00-4bab-ac73-cc927da41e09-7" />
      </symbol>
    </g>
  </defs>
  <sodipodi:namedview
     inkscape:window-maximized="1"
     inkscape:window-y="487"
     inkscape:window-x="-8"
     inkscape:window-height="1377"
     inkscape:window-width="2560"
     inkscape:snap-global="false"
     showgrid="false"
     inkscape:document-rotation="0"
     inkscape:current-layer="layer1"
     inkscape:document-units="mm"
     inkscape:cy="4.4640184"
     inkscape:cx="4.3863833"
     inkscape:zoom="12.880771"
     inkscape:pageshadow="2"
     inkscape:pageopacity="0.0"
     borderopacity="1.0"
     bordercolor="#666666"
     pagecolor="#ffffff"
     id="base"
     inkscape:pagecheckerboard="0" />
  <metadata
     id="metadata5">
    <rdf:RDF>
      <cc:Work
         rdf:about="">
        <dc:format>image/svg+xml</dc:format>
        <dc:type
           rdf:resource="http://purl.org/dc/dcmitype/StillImage" />
      </cc:Work>
    </rdf:RDF>
  </metadata>
  <g
     transform="translate(-80.6177,-66.080499)"
     style="display:inline"
     id="layer1"
     inkscape:groupmode="layer"
     inkscape:label="Layer 1">
    <g
       id="g43637">
      <path
         style="fill:#aaccff;fill-opacity:1;stroke:none;stroke-width:0.264583px;stroke-linecap:butt;stroke-linejoin:miter;stroke-opacity:1"
         d="m 80.927799,68.183433 -0.118111,0.308114 -0.04108,0.729204 0.09243,0.07703 h 0.07189 l 0.154057,0.133517 0.231086,0.09757 h 0.164327 l 0.256762,-0.159192 0.359467,-0.251627 0.467307,-0.344061 0.292708,-0.143787 0.385143,0.03081 0.380008,0.164327 0.338926,0.267033 0.277303,0.282438 0.385142,0.236221 0.410819,0.164328 0.251627,0.0051 0.354331,-0.220815 0.390279,-0.277303 0.390278,-0.308114 0.256762,-0.200275 -0.19514,-0.585417 -0.148921,-0.267032 -0.297844,0.190004 -0.400549,0.338925 -0.44163,0.236221 -0.43136,-0.01541 -0.410819,-0.236221 -0.436496,-0.374872 -0.236221,-0.200274 c 0,0 -0.385142,-0.179734 -0.410819,-0.184869 -0.02568,-0.0051 -0.390278,-0.123246 -0.390278,-0.123246 l -0.369737,0.123246 -0.302979,0.267033 -0.359467,0.277303 c 0,0 -0.261897,0.159192 -0.292708,0.169462 -0.03081,0.01027 -0.395414,-0.08216 -0.395414,-0.08216 z"
         id="path35662" />
      <path
         style="fill:#4e4ef8;fill-opacity:1;stroke:none;stroke-width:0.264583px;stroke-linecap:butt;stroke-linejoin:miter;stroke-opacity:1"
         d="m 80.866849,69.305859 -0.13207,0.0581 0.06536,0.493837 0.170665,0.482945 0.290492,0.53015 0.275969,-0.221501 0.71897,-0.559199 0.453895,-0.257813 0.337698,-0.0581 0.301387,0.02905 0.432108,0.25055 0.413952,0.341329 0.22962,0.181247 0.31325,0.174598 0.385142,0.164327 0.272168,-0.0051 0.395413,-0.231086 0.267033,-0.231086 0.220815,-0.190003 0.190004,-0.01541 0.159192,-0.374872 0.08216,-0.554606 -0.05135,-0.374872 -0.246492,0.08216 -0.287573,0.251627 -0.400549,0.297844 -0.385143,0.20541 -0.33379,0.05649 -0.585417,-0.251627 -0.472442,-0.400548 -0.446766,-0.31325 -0.472442,-0.164327 -0.405684,0.06676 -0.43136,0.354331 -0.667581,0.380008 -0.220815,0.09243 -0.31325,-0.08216 z"
         id="path32566" />
      <path
         style="fill:#202067;fill-opacity:1;stroke:none;stroke-width:0.264583px;stroke-linecap:butt;stroke-linejoin:miter;stroke-opacity:1"
         d="m 81.447835,70.830948 0.634105,-0.541044 0.929578,-0.43574 0.59551,0.130722 0.479313,0.392166 0.827905,0.59551 0.464789,-0.02905 0.639085,-0.319542 0.324522,-0.330435 v 0 l -0.06308,0.475681 -0.59551,0.639085 -0.62456,0.450264 -0.566461,0.203345 -0.682659,0.07262 -0.610035,-0.02905 -0.668134,-0.174296 -0.769806,-0.464789 -0.275968,-0.319542 -0.0386,-0.31591"
         id="path21121" />
      <path
         style="fill:none;stroke:#ffffff;stroke-width:0.264583px;stroke-linecap:round;stroke-linejoin:miter;stroke-opacity:1"
         d="m 81.05069,68.241928 c 0,0 0.279417,0.182382 0.550891,0.145288 0.289976,-0.03962 0.738386,-0.813421 1.308264,-0.827946 0.479158,-0.01221 0.847685,0.330869 1.111136,0.559199 0.323417,0.280302 0.68992,0.59551 1.089348,0.59551 0.399428,0 1.125661,-0.777068 1.125661,-0.777068"
         id="path864"
         sodipodi:nodetypes="cssssc" />
      <path
         style="display:inline;fill:none;stroke:#ffffff;stroke-width:0.264583px;stroke-linecap:round;stroke-linejoin:miter;stroke-opacity:1"
         d="m 80.866849,69.305859 c 0,0 0.222071,0.314535 0.531233,0.28521 0.333749,-0.03166 1.213785,-0.90977 1.545792,-0.90977 0.479314,0 0.847685,0.330869 1.111136,0.559199 0.323417,0.280302 0.68992,0.59551 1.089348,0.59551 0.399428,0 1.416154,-0.90779 1.416154,-0.90779"
         id="path864-5"
         sodipodi:nodetypes="cssssc" />
      <path
         style="display:inline;fill:none;stroke:#ffffff;stroke-width:0.264583px;stroke-linecap:round;stroke-linejoin:miter;stroke-opacity:1"
         d="m 81.447835,70.830948 c 0,0 1.103873,-0.987676 1.583187,-0.987676 0.479314,0 0.847685,0.330869 1.111136,0.559199 0.323417,0.280302 0.68992,0.59551 1.089348,0.59551 0.399428,0 1.316546,-0.858502 1.316546,-0.858502"
         id="path864-5-0"
         sodipodi:nodetypes="csssc" />
      <circle
         style="fill:none;stroke:#202067;stroke-width:0.272876;stroke-linecap:round;stroke-miterlimit:4;stroke-dasharray:none;stroke-opacity:1"
         id="path12363"
         cx="83.723228"
         cy="69.186028"
         r="2.9690902" />
    </g>
  </g>
</svg>
